<?xml version="1.0" encoding="utf-8"?>
<!-- Generator: Adobe Illustrator 23.0.0, SVG Export Plug-In . SVG Version: 6.00 Build 0)  -->
<svg version="1.1" id="레이어_1" xmlns="http://www.w3.org/2000/svg" xmlns:xlink="http://www.w3.org/1999/xlink" x="0px"
	 y="0px" viewBox="0 0 1500 1024" style="enable-background:new 0 0 1500 1024;" xml:space="preserve">
<style type="text/css">
	.st0{fill:#BF7B00;}
	.st1{fill:#A95E00;}
	.st2{fill:#777777;}
	.st3{opacity:0.3;fill:#131313;}
	.st4{fill:#F2B705;}
	.st5{fill:#9F7900;}
	.st6{fill:none;}
	.st7{opacity:0.3;}
	.st8{fill:#131313;}
</style>
<rect x="254" y="185" transform="matrix(0.9874 -0.1582 0.1582 0.9874 -26.2858 116.6833)" class="st0" width="932" height="77"/>
<rect x="153.27" y="275.11" transform="matrix(0.9684 0.2494 -0.2494 0.9684 104.5104 -197.6421)" class="st1" width="1357.87" height="77"/>
<circle class="st2" cx="1449.73" cy="472.34" r="20.67"/>
<ellipse transform="matrix(0.0269 -0.9996 0.9996 0.0269 51.8244 360.7012)" class="st2" cx="211.18" cy="153.73" rx="17.55" ry="17.23"/>
<circle class="st2" cx="298.48" cy="290.91" r="20.67"/>
<ellipse transform="matrix(0.9913 -0.1315 0.1315 0.9913 -11.1876 148.958)" class="st2" cx="1121.86" cy="159.16" rx="17.23" ry="17.55"/>
<g>
	
		<rect x="96.66" y="581.17" transform="matrix(0.9853 0.1708 -0.1708 0.9853 116.0056 -108.9714)" class="st1" width="1189.25" height="77"/>
	
		<ellipse transform="matrix(0.9993 -0.0387 0.0387 0.9993 -20.1608 5.7375)" class="st2" cx="138.25" cy="524.09" rx="15.67" ry="15.67"/>
	
		<ellipse transform="matrix(0.9965 -0.0839 0.0839 0.9965 -55.6293 106.7499)" class="st2" cx="1242.19" cy="715.2" rx="15.67" ry="15.67"/>
</g>
<path class="st3" d="M1363.4,996.72l-117.74-22.8l-116.41-22.48l-117.74-22.8l-134.3-25.97h-0.17l-58.46-12.59H675.46l45.13,12.59
	h-0.24l389.22,120.02h33.16l-84.17-25.97h57.41l84.17,25.97h33.15l-168.33-51.94h35.1h35.41h60.49l268.6,51.94h33.15L1363.4,996.72z
	 M893.78,928.24h-3.71h-53.71l-81.6-25.18h0.38h57.03L893.78,928.24z M984.47,973.92l-71.53-22.11h57.41l71.53,22.11H984.47z
	 M1031.62,957.77h-8.35l-26.03-7.92l40.58,7.92H1031.62z M1070.99,957.77l-32.3-6.33l-97.2-18.69l-96.16-29.69h0.38h0.38
	l283.12,54.71l0.42,0.08l-0.42-0.08H1070.99z"/>
<path class="st4" d="M1475.08,957.57l-21.83-58.22l-21.83-57.41l-21.83-58.22l-25.07-66.31h-0.17l-5.49-32.16h-143.13l-7.84,32.16
	h-0.24L1112,1023.88h33.16l25.06-66.31h57.41l-25.06,66.31h33.15l50.14-132.62h35.1h35.41h60.49l50.14,132.62h33.15L1475.08,957.57z
	 M1293.51,782.7h-3.71h-53.71l24.31-64.29h0.38h57.03L1293.51,782.7z M1192.05,899.35l21.47-56.46h57.41l-21.47,56.46H1192.05z
	 M1307.14,858.11h-8.35l7.28-20.22l7.28,20.22H1307.14z M1346.5,858.11l-5.66-16.17l-18.6-47.71l28.73-75.81h0.38h0.38l52.99,139.7
	l0.07,0.21l-0.08-0.21H1346.5z"/>
<polyline class="st5" points="1326.29,891.26 1376.42,1023.88 1409.58,1023.88 1384.51,957.57 1362.67,899.35 1360.25,893.69 
	1359.44,891.26 "/>
<line class="st6" x1="1293.19" y1="783.61" x2="1271.2" y2="841.98"/>
<line class="st6" x1="1235.57" y1="783.61" x2="1213.96" y2="841.98"/>
<line class="st6" x1="1249.6" y1="899.22" x2="1227.61" y2="957.59"/>
<g>
	<path d="M1466.42,557.25c-4-11.09-34.42-18.87-45.09-13.85c-22.83,10.74-19.22,77.15-38.67,93.21c-0.76,0.63-1.67,1.19-2.69,1.68
		c3.62-15.72,3.63-34.42,3.63-54.49c0-20.36-18.39-44.84-37.24-64.58c21.11-10.91,35.12-30.13,35.12-52.01
		c0-16.07-7.56-30.7-19.93-41.66c7.95-15.71,3.86-31.3,3.86-31.3s-18.19-0.42-30.77,16.01c-8.84-2.96-18.51-4.59-28.65-4.59
		c-9.34,0-18.29,1.39-26.55,3.91c-17.18-15.32-29.91-15.34-29.91-15.34s-3.38,11.42,0.1,32.02c-11.9,10.87-19.13,25.22-19.13,40.93
		c0,21.98,14.14,41.26,35.41,52.15c-9.48,9.94-18.83,21.07-25.77,32.27l-19.08-25.73c-0.76-1.03-2.22-1.25-3.25-0.48l-5.59,4.15
		c-1.03,0.77-1.24,2.22-0.48,3.25l22.31,30.08c-3.28,7.2-5.24,14.26-5.24,20.89c0,55.71,0,100.87,77.39,100.87
		c39.43,0,58.77-11.72,68.25-30.59c7.12-0.68,13.07-2.2,16.5-5.03c19.04-15.71,15.6-80.7,37.98-91.14
		c7.86-3.67,24.72,12.45,33.14,10.36C1464.94,567.54,1467.43,560.03,1466.42,557.25z"/>
	<path d="M1220.36,515.02c-4.18-6.28-5.47-11.02-3.86-14.22c1.6-3.17,5.23-6.88,10.9-11.14c1.02-0.77,1.23-2.21,0.47-3.24l-2.82-3.8
		c-2.33-3.13-6.75-3.79-9.89-1.46l-29.72,22.05c-0.01,0.01-0.02,0.02-0.03,0.03c-4.09,3.07-4.94,8.86-1.89,12.96
		c-0.01,0.01-0.02,0.01-0.03,0.02h-0.01l-3.73,2.77l-4.14-5.59c-0.76-1.03-2.22-1.24-3.25-0.48l-5.07,3.76
		c-0.83,0.61-1.06,0.93-1.25,1.31c-0.18,0.39-0.24,0.81-0.18,1.23c0.06,0.43,0.2,0.79,0.81,1.62l15.82,21.32
		c0.61,0.83,0.93,1.07,1.31,1.25s0.81,0.24,1.23,0.18c0.43-0.06,0.79-0.2,1.62-0.81l4.52-3.36c0.83-0.61,1.06-0.93,1.25-1.31
		c0.18-0.39,0.24-0.81,0.18-1.23c-0.06-0.43-0.2-0.79-0.81-1.62l-3.76-5.07l3.2-2.38c0.28-0.21,0.5-0.39,0.66-0.54
		c1.51,1.75,2.51,2.44,3.69,3c1.55,0.73,3.21,0.97,4.9,0.71c1.69-0.25,3.15-0.8,6.46-3.26l12.85-9.53
		C1220.8,517.43,1221.05,516.05,1220.36,515.02z"/>
</g>
<g class="st7">
	<path class="st8" d="M699.05,843.82c-23.2-4-67.1-6.81-69.08-5c-4.22,3.88,114.41,27.85,122.78,33.65
		c0.33,0.23,0.39,0.43,0.21,0.61c-23.6-5.67-55.99-12.43-90.76-19.67c-35.27-7.35-96.05-16.19-149.09-23.31
		c2.21-3.94-17.05-10.88-54.95-18.78c-27.83-5.8-60.73-11.08-92.08-15.04c-19.25-5.67-50.35-11.3-50.35-11.3s-18.92-0.15-3.03,5.78
		c-13.96-1.07-26.46-1.66-36.61-1.66c-9.34,0-15.89,0.5-19.77,1.41c-43.72-5.53-56.47-5.54-56.47-5.54s16.4,4.12,55.56,11.56
		c6.94,3.93,24.54,9.1,51.76,14.78c38.07,7.93,85.61,14.9,125.74,18.83c7.74,3.59,17.67,7.61,30.13,11.65l-63.64-9.29
		c-2.54-0.37-4.38-0.45-4.08-0.17l1.59,1.5c0.3,0.28,2.6,0.8,5.15,1.17l74.41,10.86c9.18,2.6,19.47,5.15,30.95,7.54
		c96.49,20.11,174.71,36.42,252.11,36.42c39.43,0,38.46-4.23,15.26-11.05c5.95-0.24,9.26-0.8,7.78-1.82
		c-8.17-5.67-124.18-29.14-119.89-32.9c1.5-1.33,46.28,4.49,51.08,3.74C715.4,847.53,704.87,844.82,699.05,843.82z"/>
	<path class="st8" d="M379.85,828.57c-15.07-2.27-24.56-3.98-28.5-5.14c-3.89-1.14-6.7-2.49-8.4-4.02c-0.31-0.28-2.6-0.8-5.14-1.17
		l-9.39-1.37c-7.76-1.13-13.32-1.37-12.42-0.53l8.47,7.96c0,0,0.02,0.01,0.01,0.01c1.22,1.11,10.41,3.2,20.56,4.68
		c0,0,0,0,0.01,0.01h-0.01l1.07,1l-13.83-2.02c-2.54-0.37-4.37-0.45-4.08-0.17l1.44,1.36c0.24,0.22,0.54,0.33,1.02,0.47
		c0.49,0.14,1.16,0.29,1.95,0.44c0.8,0.15,1.58,0.29,3.63,0.59l52.75,7.7c2.05,0.3,2.78,0.39,3.48,0.45
		c0.7,0.06,1.23,0.09,1.54,0.06c0.32-0.02,0.45-0.07,0.21-0.29l-1.3-1.21c-0.24-0.22-0.54-0.33-1.02-0.47
		c-0.49-0.14-1.16-0.29-1.95-0.44c-0.8-0.15-1.58-0.29-3.63-0.59l-12.55-1.83l-0.92-0.86c-0.09-0.08-0.17-0.14-0.27-0.19
		c4.54,0.63,6.73,0.88,8.88,1.08c2.81,0.26,4.88,0.35,6.13,0.26c1.26-0.09,1.76-0.29,0.82-1.18l-3.65-3.44
		C384.47,829.44,382.31,828.94,379.85,828.57z"/>
</g>
<polygon class="st5" points="1322,794 1306,838 1313.27,858.28 1346.63,858.28 "/>
</svg>
