<svg version="1" xmlns="http://www.w3.org/2000/svg" width="933.333" height="933.333" viewBox="0 0 700.000000 700.000000"><path d="M0 350v350h700V0H0v350zm293-229.5c0 .3-2 3.2-4.4 6.5-2.5 3.3-7.4 11.1-11 17.3-14.6 25.1-24.2 52.3-29.3 83.2-2.5 15.3-2.5 54.3 0 69.9 9.7 60.1 40.3 113.2 86.7 149.9l7.5 5.9 4.2 15.2c2.4 8.3 4.3 16.4 4.3 17.9 0 2.8-2.8 6.2-8.1 9.8-1.4.9-3.3 3.3-4.4 5.4l-2 3.7 2.2 1.7c3 2.5 21.4 3.3 46.8 2 14-.6 23.3-.6 31 .1 6.1.6 20.2 1.4 31.5 1.7 19.5.5 20.8.4 26.4-1.7 3.4-1.3 8-4.1 10.5-6.5l4.6-4.2 10.5-.6c16.6-1 39.2-5.4 54.4-10.7 3.3-1.1 6.3-2 6.8-2 1.7 0-11.4 14.9-23.1 26.2-36.2 35.2-79.6 56.5-131.1 64.4-15.8 2.5-49 2.5-65 .1-43.6-6.7-82.4-23.5-116.5-50.5-9.7-7.7-28.8-27-36.7-37.2-20.8-26.9-35.2-56-43.3-87.4-5.7-22.4-7-33.2-7-59.6 0-26.2 1.2-35.7 7-58.6 14.1-55.2 48.5-104 96.1-136.4 17.3-11.8 51.4-28.7 51.4-25.5zm195.3 80.1c4.2 8.2 12.7 14.9 22.1 17.4l6 1.7-4.8 1.2c-13.2 3.3-23.1 12.5-26.7 24.9l-1.3 4.3-2.1-5.9c-4.4-12.2-13.2-20.1-26-23.3l-4.8-1.2 5.1-1.3c7.3-1.9 12.1-4.6 17.1-9.5 5-5 8.8-12 9.8-18.1l.7-4.3 1.6 5.5c.9 3 2.4 6.9 3.3 8.6z"/></svg>